<?xml version="1.0" standalone="no"?><!DOCTYPE svg PUBLIC "-//W3C//DTD SVG 1.1//EN" "http://www.w3.org/Graphics/SVG/1.1/DTD/svg11.dtd"><svg xmlns="http://www.w3.org/2000/svg" version="1.1" width="1270.052" height="1441.98" xmlns:xlink="http://www.w3.org/1999/xlink" xlink="http://www.w3.org/1999/xlink" style="position:relative;overflow:hidden;" viewBox="-7 -7 1270.052 1441.98"><defs><filter id="965cb132-0ed6-4a33-bc61-2cf5563f780d" x="-0.5" y="-0.5" width="2" height="2"><feFlood flood-color="#000" flood-opacity="0.6" result="flood"/><feComposite in="flood" in2="SourceAlpha" operator="in" result="mask"/><feGaussianBlur in="mask" stdDeviation="2"/><feOffset dx="1.25" dy="1.25" result="oEffect0"/><feMerge><feMergeNode in="oEffect0"/><feMergeNode in="SourceGraphic"/></feMerge></filter><filter id="a7b59569-b4ee-4c27-b265-38807b9e234e" x="-0.5" y="-0.5" width="2" height="2"><feMerge><feMergeNode in="SourceGraphic"/></feMerge></filter></defs><g><g width="213.638" height="25" transform="scale(1,1) translate(43.167,62.333)"><g stroke="#7F7F7F" opacity="1" stroke-width="0" stroke-dasharray="none" width="213.638" height="25" transform="scale(1,1) translate(0,0)" fill="none" stroke-opacity="1"><rect width="213.638" height="25"/></g><g width="213.63827514648438" height="24.999998092651367" transform="scale(1,1) translate(0,0)"><text width="213.63827514648438" height="24.999998092651367" transform="scale(1,1) translate(0,0)" xml:space="preserve"><tspan xml:space="preserve" text-rendering="optimizeSpeed" font-size="22.22222222222222" font-weight="bold" font-style="normal" fill="#333333" opacity="1" x="0" text-anchor="start" y="19.792" textLength="213.63827514648438" style="font-family: Arial, Helvetica Neue, Helvetica, sans-serif;">Purchasing Process</tspan></text></g></g><g width="0" height="1358.578" transform="scale(1,1) translate(428.219,5.5)"><g fill="#545454" stroke="#545454" stroke-opacity="1" transform="scale(1,1) translate(0,0)"><path fill="none" stroke-width="1" stroke-dasharray="none" d="M0,0 L0,0 M0,0 L0,0 M0,1358.578 L0,1358.578 M0,0 L0,0 M0,76.667 L0,116.667 M0,236.667 L0,276.667 M0,387.667 L0,427.667 M0,522.833 L0,562.833 M0,673.833 L0,713.833 M0,900.333 L0,940.333 M0,1051.333 L0,1091.333 M0,1232.411 L0,1272.411"/><g><g stroke-dasharray="none"><path d="M5,116.667L0,126.667L-5,116.667z" stroke="none" fill-opacity="1"/></g><g stroke-dasharray="none"><path d="M5,276.667L0,286.667L-5,276.667z" stroke="none" fill-opacity="1"/></g><g stroke-dasharray="none"><path d="M5,427.667L0,437.667L-5,427.667z" stroke="none" fill-opacity="1"/></g><g stroke-dasharray="none"><path d="M5,562.833L0,572.833L-5,562.833z" stroke="none" fill-opacity="1"/></g><g stroke-dasharray="none"><path d="M5,713.833L0,723.833L-5,713.833z" stroke="none" fill-opacity="1"/></g><g stroke-dasharray="none"><path d="M5,940.333L0,950.333L-5,940.333z" stroke="none" fill-opacity="1"/></g><g stroke-dasharray="none"><path d="M5,1091.333L0,1101.333L-5,1091.333z" stroke="none" fill-opacity="1"/></g><g stroke-dasharray="none"><path d="M5,1272.411L0,1282.411L-5,1272.411z" stroke="none" fill-opacity="1"/></g></g></g><g stroke-width="0" stroke-dasharray="none" fill="#FFFFFF" opacity="0" width="15.119" height="17.625" transform="scale(1,1) translate(-8.56,394.542)"><rect width="15.119" height="17.625"/></g><g width="13.11925220489502" height="50" transform="scale(1,1) translate(-7.56,395.542)"><text width="13.11925220489502" height="15.624999046325684" transform="scale(1,1) translate(0,0)" xml:space="preserve"><tspan xml:space="preserve" text-rendering="optimizeSpeed" font-size="13.88888888888889" font-weight="normal" font-style="normal" fill="#333333" opacity="1" x="0" text-anchor="start" y="12.5" textLength="13.11925220489502" style="font-family: Arial, Helvetica Neue, Helvetica, sans-serif;">SI</tspan></text></g><g stroke-width="0" stroke-dasharray="none" fill="#FFFFFF" opacity="0" width="15.119" height="17.625" transform="scale(1,1) translate(-8.56,680.708)"><rect width="15.119" height="17.625"/></g><g width="13.11925220489502" height="50" transform="scale(1,1) translate(-7.56,681.708)"><text width="13.11925220489502" height="15.624999046325684" transform="scale(1,1) translate(0,0)" xml:space="preserve"><tspan xml:space="preserve" text-rendering="optimizeSpeed" font-size="13.88888888888889" font-weight="normal" font-style="normal" fill="#333333" opacity="1" x="0" text-anchor="start" y="12.5" textLength="13.11925220489502" style="font-family: Arial, Helvetica Neue, Helvetica, sans-serif;">SI</tspan></text></g></g><g width="200" height="100" transform="scale(1,1) translate(328.219,292.167)"><g transform="scale(1,1) translate(0,0)" stroke="#7F7F7F" fill="url(#292f05d9-93fa-411c-b62f-ba78c191b729)" stroke-opacity="1" filter="url(#965cb132-0ed6-4a33-bc61-2cf5563f780d)"><linearGradient id="292f05d9-93fa-411c-b62f-ba78c191b729" x1="100" y1="0" x2="100" y2="100" gradientUnits="userSpaceOnUse"><stop offset="0%" style="stop-color:#CDC29C;stop-opacity:1;"/><stop offset="100%" style="stop-color:#CBBB85;stop-opacity:1;"/></linearGradient><path d="M100,0 L200,50 L100,100 L0,50 L100,0 z" stroke-width="1" stroke-dasharray="none"/></g><g width="95.5" height="45.5" transform="scale(1,1) translate(52.333,27.333)"><text width="95.5" height="15.624999046325684" transform="scale(1,1) translate(0,14.937500476837158)" xml:space="preserve"><tspan xml:space="preserve" text-rendering="optimizeSpeed" font-size="13.88888888888889" font-weight="normal" font-style="normal" fill="#333333" opacity="1" x="10.318" text-anchor="start" y="12.5" textLength="74.864501953125" style="font-family: Arial, Helvetica Neue, Helvetica, sans-serif;">if(menú==1)</tspan></text></g></g><g width="151.333" height="75.667" transform="scale(1,1) translate(352.552,5.5)"><g transform="scale(1,1) translate(0,0)" stroke="#7F7F7F" fill="url(#7792c5a5-27f3-4ba4-8c89-873346062918)" stroke-opacity="1" filter="url(#965cb132-0ed6-4a33-bc61-2cf5563f780d)"><linearGradient id="7792c5a5-27f3-4ba4-8c89-873346062918" x1="75.66666666666666" y1="0" x2="75.66666666666666" y2="75.66666666666666" gradientUnits="userSpaceOnUse"><stop offset="0%" style="stop-color:#92B0CF;stop-opacity:1;"/><stop offset="100%" style="stop-color:#8CA8CD;stop-opacity:1;"/></linearGradient><path d="M37,0 L28.675,0.949 L25.303,1.897 L22.769,2.846 L20.678,3.795 L18.875,4.744 L17.281,5.692 L15.85,6.641 L14.549,7.59 L13.358,8.538 L12.26,9.487 L11.244,10.436 L10.301,11.385 L9.422,12.333 L8.602,13.282 L7.836,14.231 L7.119,15.179 L6.449,16.128 L5.822,17.077 L5.236,18.026 L4.688,18.974 L4.177,19.923 L3.7,20.872 L3.257,21.821 L2.846,22.769 L2.466,23.718 L2.116,24.667 L1.795,25.615 L1.502,26.564 L1.237,27.513 L0.999,28.462 L0.787,29.41 L0.601,30.359 L0.44,31.308 L0.305,32.256 L0.195,33.205 L0.11,34.154 L0.049,35.103 L0.012,36.051 L0,37 L0,38.667 L0.012,39.615 L0.049,40.564 L0.11,41.513 L0.195,42.462 L0.305,43.41 L0.44,44.359 L0.601,45.308 L0.787,46.256 L0.999,47.205 L1.237,48.154 L1.502,49.103 L1.795,50.051 L2.116,51 L2.466,51.949 L2.846,52.897 L3.257,53.846 L3.7,54.795 L4.177,55.744 L4.688,56.692 L5.236,57.641 L5.822,58.59 L6.449,59.538 L7.119,60.487 L7.836,61.436 L8.602,62.385 L9.422,63.333 L10.301,64.282 L11.244,65.231 L12.26,66.179 L13.358,67.128 L14.549,68.077 L15.85,69.026 L17.281,69.974 L18.875,70.923 L20.678,71.872 L22.769,72.821 L25.303,73.769 L28.675,74.718 L37,75.667 L114.333,75.667 L122.658,74.718 L126.03,73.769 L128.564,72.821 L130.656,71.872 L132.459,70.923 L134.052,69.974 L135.484,69.026 L136.784,68.077 L137.975,67.128 L139.073,66.179 L140.089,65.231 L141.033,64.282 L141.912,63.333 L142.732,62.385 L143.498,61.436 L144.214,60.487 L144.884,59.538 L145.511,58.59 L146.098,57.641 L146.646,56.692 L147.157,55.744 L147.633,54.795 L148.076,53.846 L148.487,52.897 L148.867,51.949 L149.217,51 L149.538,50.051 L149.831,49.103 L150.096,48.154 L150.335,47.205 L150.547,46.256 L150.732,45.308 L150.893,44.359 L151.028,43.41 L151.138,42.462 L151.224,41.513 L151.285,40.564 L151.321,39.615 L151.333,38.667 L151.333,37 L151.321,36.051 L151.285,35.103 L151.224,34.154 L151.138,33.205 L151.028,32.256 L150.893,31.308 L150.732,30.359 L150.547,29.41 L150.335,28.462 L150.096,27.513 L149.831,26.564 L149.538,25.615 L149.217,24.667 L148.867,23.718 L148.487,22.769 L148.076,21.821 L147.633,20.872 L147.157,19.923 L146.646,18.974 L146.098,18.026 L145.511,17.077 L144.884,16.128 L144.214,15.179 L143.498,14.231 L142.732,13.282 L141.912,12.333 L141.033,11.385 L140.089,10.436 L139.073,9.487 L137.975,8.538 L136.784,7.59 L135.484,6.641 L134.052,5.692 L132.459,4.744 L130.656,3.795 L128.564,2.846 L126.03,1.897 L122.658,0.949 L114.333,0 L37,0 z" stroke-width="1" stroke-dasharray="none"/></g><g width="102.30171956066665" height="48.79730638933333" transform="scale(1,1) translate(24.516,13.435)"><text width="102.30171956066665" height="15.624999046325684" transform="scale(1,1) translate(0,16.586153671503823)" xml:space="preserve"><tspan xml:space="preserve" text-rendering="optimizeSpeed" font-size="13.88888888888889" font-weight="normal" font-style="normal" fill="#333333" opacity="1" x="34.943" text-anchor="start" y="12.5" textLength="32.41505432128906" style="font-family: Arial, Helvetica Neue, Helvetica, sans-serif;">Inicio</tspan></text></g></g><g width="722.5" height="0" transform="scale(1,1) translate(528.219,342.167)"><g fill="#545454" stroke="#545454" stroke-opacity="1" transform="scale(1,1) translate(0,0)"><path fill="none" stroke-width="1" stroke-dasharray="none" d="M68.833,0 L68.833,0 M0,0 L58.833,0 M722.5,0 L722.5,0 M68.833,0 L68.833,0 M269.833,0 L309.833,0 M521.5,0 L561.5,0"/><g><g stroke-dasharray="none"><path d="M58.833,-5L68.833,0L58.833,5z" stroke="none" fill-opacity="1"/></g><g stroke-dasharray="none"><path d="M309.833,-5L319.833,0L309.833,5z" stroke="none" fill-opacity="1"/></g><g stroke-dasharray="none"><path d="M561.5,-5L571.5,0L561.5,5z" stroke="none" fill-opacity="1"/></g></g></g><g stroke-width="0" stroke-dasharray="none" fill="#FFFFFF" opacity="1" width="22.828" height="17.625" transform="scale(1,1) translate(23.003,-8.812)"><rect width="22.828" height="17.625"/></g><g width="20.8281192779541" height="40" transform="scale(1,1) translate(24.003,-7.812)"><text width="20.8281192779541" height="15.624999046325684" transform="scale(1,1) translate(0,0)" xml:space="preserve"><tspan xml:space="preserve" text-rendering="optimizeSpeed" font-size="13.88888888888889" font-weight="normal" font-style="normal" fill="#333333" opacity="1" x="0" text-anchor="start" y="12.5" textLength="20.8281192779541" style="font-family: Arial, Helvetica Neue, Helvetica, sans-serif;">NO</tspan></text></g><g stroke-width="0" stroke-dasharray="none" fill="#FFFFFF" opacity="1" width="22.828" height="17.625" transform="scale(1,1) translate(283.419,-8.812)"><rect width="22.828" height="17.625"/></g><g width="20.8281192779541" height="40" transform="scale(1,1) translate(284.419,-7.812)"><text width="20.8281192779541" height="15.624999046325684" transform="scale(1,1) translate(0,0)" xml:space="preserve"><tspan xml:space="preserve" text-rendering="optimizeSpeed" font-size="13.88888888888889" font-weight="normal" font-style="normal" fill="#333333" opacity="1" x="0" text-anchor="start" y="12.5" textLength="20.8281192779541" style="font-family: Arial, Helvetica Neue, Helvetica, sans-serif;">NO</tspan></text></g></g><g width="168.5" height="84.333" transform="scale(1,1) translate(1090.552,429.667)"><g transform="scale(1,1) translate(0,0)" stroke="#7F7F7F" fill="url(#570f0b5e-91fb-4599-bed4-a8264076a97e)" stroke-opacity="1" filter="url(#965cb132-0ed6-4a33-bc61-2cf5563f780d)"><linearGradient id="570f0b5e-91fb-4599-bed4-a8264076a97e" x1="83.25" y1="0" x2="83.25" y2="82.39492451988625" gradientUnits="userSpaceOnUse"><stop offset="0%" style="stop-color:#C4D5E6;stop-opacity:1;"/><stop offset="100%" style="stop-color:#B6CDE4;stop-opacity:1;"/></linearGradient><path d="M0,66.667 L0,0 L166.5,0 L166.5,65.833 L165.645,65.238 L164.79,64.655 L163.935,64.085 L163.08,63.526 L162.226,62.98 L161.371,62.445 L160.517,61.923 L159.663,61.413 L158.809,60.915 L157.955,60.43 L157.101,59.956 L156.247,59.495 L155.394,59.045 L154.54,58.608 L153.687,58.183 L152.834,57.77 L151.981,57.37 L151.128,56.981 L150.275,56.604 L149.423,56.24 L148.57,55.888 L147.718,55.548 L146.866,55.22 L146.014,54.904 L145.162,54.601 L144.31,54.309 L143.459,54.03 L142.607,53.763 L141.756,53.508 L140.905,53.265 L140.054,53.034 L139.203,52.816 L138.352,52.609 L137.501,52.415 L136.651,52.233 L135.8,52.063 L134.95,51.905 L134.1,51.759 L133.25,51.626 L132.4,51.504 L131.55,51.395 L130.701,51.298 L129.851,51.213 L129.002,51.14 L128.153,51.079 L127.304,51.031 L126.455,50.994 L125.606,50.97 L124.758,50.958 L123.909,50.958 L123.061,50.97 L122.213,50.994 L121.364,51.031 L120.517,51.079 L119.669,51.14 L118.821,51.213 L117.974,51.298 L117.126,51.395 L116.279,51.504 L115.432,51.626 L114.585,51.759 L113.738,51.905 L112.891,52.063 L112.045,52.233 L111.198,52.415 L110.352,52.609 L109.506,52.816 L108.66,53.034 L107.814,53.265 L106.968,53.508 L106.122,53.763 L105.277,54.03 L104.432,54.309 L103.586,54.601 L102.741,54.904 L101.896,55.22 L101.051,55.548 L100.207,55.888 L99.362,56.24 L98.518,56.604 L97.674,56.981 L96.829,57.37 L95.985,57.77 L95.142,58.183 L94.298,58.608 L93.454,59.045 L92.611,59.495 L91.767,59.956 L90.924,60.43 L90.081,60.915 L89.238,61.413 L88.396,61.923 L87.553,62.445 L86.71,62.98 L85.868,63.526 L85.026,64.085 L84.184,64.655 L83.342,65.238 L82.5,65.833 L82.5,65.833 L81.74,66.487 L80.978,67.128 L80.215,67.756 L79.45,68.37 L78.684,68.972 L77.917,69.56 L77.148,70.135 L76.377,70.697 L75.605,71.245 L74.831,71.781 L74.056,72.303 L73.28,72.812 L72.502,73.308 L71.722,73.791 L70.941,74.261 L70.158,74.717 L69.374,75.16 L68.589,75.59 L67.802,76.007 L67.013,76.411 L66.223,76.801 L65.432,77.179 L64.639,77.543 L63.844,77.894 L63.048,78.232 L62.251,78.556 L61.452,78.868 L60.651,79.166 L59.849,79.451 L59.046,79.723 L58.241,79.982 L57.434,80.227 L56.626,80.46 L55.817,80.679 L55.006,80.885 L54.194,81.078 L53.38,81.258 L52.564,81.424 L51.747,81.578 L50.929,81.718 L50.109,81.845 L49.288,81.959 L48.465,82.059 L47.641,82.147 L46.815,82.221 L45.987,82.282 L45.158,82.33 L44.328,82.365 L43.496,82.387 L42.663,82.395 L41.828,82.39 L40.992,82.372 L40.154,82.341 L39.315,82.297 L38.474,82.239 L37.632,82.169 L36.788,82.085 L35.943,81.988 L35.096,81.878 L34.247,81.754 L33.398,81.618 L32.546,81.468 L31.694,81.305 L30.839,81.129 L29.984,80.94 L29.126,80.738 L28.268,80.522 L27.408,80.293 L26.546,80.051 L25.683,79.796 L24.818,79.528 L23.952,79.247 L23.084,78.952 L22.215,78.644 L21.344,78.323 L20.472,77.989 L19.598,77.642 L18.723,77.281 L17.847,76.907 L16.968,76.521 L16.089,76.121 L15.208,75.707 L14.325,75.281 L13.441,74.841 L12.555,74.389 L11.668,73.923 L10.78,73.444 L9.89,72.951 L8.998,72.446 L8.105,71.927 L7.21,71.395 L6.314,70.85 L5.417,70.292 L4.518,69.721 L3.617,69.136 L2.715,68.539 L1.812,67.928 L0.907,67.304 L0,66.667 z" stroke-width="2" stroke-dasharray="none"/></g><g width="162.5" height="45.4" transform="scale(1,1) translate(3,3)"><text width="162.5" height="31.249998092651367" transform="scale(1,1) translate(0,7.075000953674316)" xml:space="preserve"><tspan xml:space="preserve" text-rendering="optimizeSpeed" font-size="13.88888888888889" font-weight="normal" font-style="normal" fill="#333333" opacity="1" x="0" text-anchor="start" y="12.5" textLength="161.6143035888672" style="font-family: Arial, Helvetica Neue, Helvetica, sans-serif;">alert("Debe ingresar algún</tspan><tspan xml:space="preserve" text-rendering="optimizeSpeed" font-size="13.88888888888889" font-weight="normal" font-style="normal" fill="#333333" opacity="1" x="10.86" text-anchor="start" y="28.125" textLength="140.77944946289062" style="font-family: Arial, Helvetica Neue, Helvetica, sans-serif;">número de operación")</tspan></text></g></g><g width="200.667" height="0" transform="scale(1,1) translate(127.552,628.333)"><g fill="#545454" stroke="#545454" stroke-opacity="1" transform="scale(1,1) translate(0,0)"><path fill="none" stroke-width="1" stroke-dasharray="none" d="M0,0 L0,0 M0,0 L0,0 M160.667,0 L200.667,0 M0,0 L0,0"/><g><g stroke-dasharray="none"><path d="M160.667,5L150.667,0L160.667,-5z" stroke="none" fill-opacity="1"/></g></g></g><g stroke-width="0" stroke-dasharray="none" fill="#FFFFFF" opacity="1" width="22.828" height="17.625" transform="scale(1,1) translate(164.253,-8.812)"><rect width="22.828" height="17.625"/></g><g width="20.8281192779541" height="40" transform="scale(1,1) translate(165.253,-7.812)"><text width="20.8281192779541" height="15.624999046325684" transform="scale(1,1) translate(0,0)" xml:space="preserve"><tspan xml:space="preserve" text-rendering="optimizeSpeed" font-size="13.88888888888889" font-weight="normal" font-style="normal" fill="#333333" opacity="1" x="0" text-anchor="start" y="12.5" textLength="20.8281192779541" style="font-family: Arial, Helvetica Neue, Helvetica, sans-serif;">NO</tspan></text></g></g><g width="200" height="100" transform="scale(1,1) translate(328.219,578.333)"><g transform="scale(1,1) translate(0,0)" stroke="#7F7F7F" fill="url(#59a36cfc-0a43-4fba-a150-4ec03ddd37a8)" stroke-opacity="1" filter="url(#a7b59569-b4ee-4c27-b265-38807b9e234e)"><linearGradient id="59a36cfc-0a43-4fba-a150-4ec03ddd37a8" x1="100" y1="0" x2="100" y2="100" gradientUnits="userSpaceOnUse"><stop offset="0%" style="stop-color:#C4D5E6;stop-opacity:1;"/><stop offset="100%" style="stop-color:#B6CDE4;stop-opacity:1;"/></linearGradient><path d="M100,0 L200,50 L100,100 L0,50 L100,0 z" stroke-width="1" stroke-dasharray="none"/></g><g width="99.5" height="49.5" transform="scale(1,1) translate(50.333,25.167)"><text width="99.5" height="31.249998092651367" transform="scale(1,1) translate(0,9.125000953674316)" xml:space="preserve"><tspan xml:space="preserve" text-rendering="optimizeSpeed" font-size="13.88888888888889" font-weight="normal" font-style="normal" fill="#333333" opacity="1" x="5.277" text-anchor="start" y="12.5" textLength="85.08868408203125" style="font-family: Arial, Helvetica Neue, Helvetica, sans-serif;">if(str ="String"</tspan><tspan xml:space="preserve" text-rendering="optimizeSpeed" font-size="13.88888888888889" font-weight="normal" font-style="normal" fill="#333333" opacity="1" x="15.694" text-anchor="start" y="28.125" textLength="68.11163330078125" style="font-family: Arial, Helvetica Neue, Helvetica, sans-serif;">&amp;&amp; str!= "")</tspan></text></g></g><g width="234.833" height="175.5" transform="scale(1,1) translate(310.885,729.333)"><g stroke="#7F7F7F" opacity="1" stroke-width="1" stroke-dasharray="none" width="234.833" height="175.5" transform="scale(1,1) translate(0,0)" fill="url(#ade8c570-e9d9-4ded-a157-ae2967f7058c)" stroke-opacity="1" filter="url(#a7b59569-b4ee-4c27-b265-38807b9e234e)"><linearGradient id="ade8c570-e9d9-4ded-a157-ae2967f7058c" x1="117.4165" y1="0" x2="117.4165" y2="175.5" gradientUnits="userSpaceOnUse"><stop offset="0%" style="stop-color:#C4D5E6;stop-opacity:1;"/><stop offset="100%" style="stop-color:#B6CDE4;stop-opacity:1;"/></linearGradient><rect width="234.833" height="175.5"/></g><g width="229.83333333333331" height="170.5" transform="scale(1,1) translate(2.5,2.5)"><text width="229.83333333333331" height="62.499996185302734" transform="scale(1,1) translate(0,54.00000190734863)" xml:space="preserve"><tspan xml:space="preserve" text-rendering="optimizeSpeed" font-size="13.88888888888889" font-weight="normal" font-style="normal" fill="#333333" opacity="1" x="72.281" text-anchor="start" y="12.5" textLength="85.27175903320312" style="font-family: Arial, Helvetica Neue, Helvetica, sans-serif;">var newarr=[];</tspan><tspan xml:space="preserve" text-rendering="optimizeSpeed" font-size="13.88888888888889" font-weight="normal" font-style="normal" fill="#333333" opacity="1" x="41.398" text-anchor="start" y="28.125" textLength="147.0373077392578" style="font-family: Arial, Helvetica Neue, Helvetica, sans-serif;">for(i=0,i&lt;=str.length;i++)</tspan></text></g></g><g width="168.167" height="84.167" transform="scale(1,1) translate(344.219,443.167)"><g transform="scale(1,1) translate(0,0)" stroke="#7F7F7F" fill="url(#d097af11-b812-49a5-98c0-ef4902566f19)" stroke-opacity="1" filter="url(#a7b59569-b4ee-4c27-b265-38807b9e234e)"><linearGradient id="d097af11-b812-49a5-98c0-ef4902566f19" x1="84.08333333333333" y1="0" x2="84.08333333333333" y2="84.16666666666666" gradientUnits="userSpaceOnUse"><stop offset="0%" style="stop-color:#C4D5E6;stop-opacity:1;"/><stop offset="100%" style="stop-color:#B6CDE4;stop-opacity:1;"/></linearGradient><path d="M20,0 L168.167,0 L148.167,84.167 L0,84.167 L20,0 z" stroke-width="1" stroke-dasharray="none"/></g><g width="123.75605762933856" height="62.499996185302734" transform="scale(1,1) translate(22.205,12.304)"><text width="123.75605762933856" height="62.499996185302734" transform="scale(1,1) translate(0,0)" xml:space="preserve"><tspan xml:space="preserve" text-rendering="optimizeSpeed" font-size="13.88888888888889" font-weight="normal" font-style="normal" fill="#333333" opacity="1" x="36.609" text-anchor="start" y="12.5" textLength="46.68013000488281" style="font-family: Arial, Helvetica Neue, Helvetica, sans-serif;">var str=</tspan><tspan xml:space="preserve" text-rendering="optimizeSpeed" font-size="13.88888888888889" font-weight="normal" font-style="normal" fill="#333333" opacity="1" x="3.075" text-anchor="start" y="28.125" textLength="113.7476806640625" style="font-family: Arial, Helvetica Neue, Helvetica, sans-serif;">prompt("Ingrese la</tspan><tspan xml:space="preserve" text-rendering="optimizeSpeed" font-size="13.88888888888889" font-weight="normal" font-style="normal" fill="#333333" opacity="1" x="31.775" text-anchor="start" y="43.75" textLength="56.348388671875" style="font-family: Arial, Helvetica Neue, Helvetica, sans-serif;">el texto a</tspan><tspan xml:space="preserve" text-rendering="optimizeSpeed" font-size="13.88888888888889" font-weight="normal" font-style="normal" fill="#333333" opacity="1" x="30.09" text-anchor="start" y="59.375" textLength="63.5758056640625" style="font-family: Arial, Helvetica Neue, Helvetica, sans-serif;">encriptar")</tspan></text></g></g><g width="218.167" height="109" transform="scale(1,1) translate(319.219,132.167)"><g transform="scale(1,1) translate(0,0)" stroke="#7F7F7F" fill="url(#f0616285-2604-48c1-a2cd-5c80d1332147)" stroke-opacity="1" filter="url(#a7b59569-b4ee-4c27-b265-38807b9e234e)"><linearGradient id="f0616285-2604-48c1-a2cd-5c80d1332147" x1="109.08333333333333" y1="0" x2="109.08333333333333" y2="109" gradientUnits="userSpaceOnUse"><stop offset="0%" style="stop-color:#C4D5E6;stop-opacity:1;"/><stop offset="100%" style="stop-color:#B6CDE4;stop-opacity:1;"/></linearGradient><path d="M20,0 L218.167,0 L198.167,109 L0,109 L20,0 z" stroke-width="1" stroke-dasharray="none"/></g><g width="161.96823837590046" height="78.53831041257368" transform="scale(1,1) translate(28.099,15.231)"><text width="161.96823837590046" height="78.12499523162842" transform="scale(1,1) translate(0,0.20665759047263066)" xml:space="preserve"><tspan xml:space="preserve" text-rendering="optimizeSpeed" font-size="13.88888888888889" font-weight="normal" font-style="normal" fill="#333333" opacity="1" x="42.776" text-anchor="start" y="12.5" textLength="72.55931091308594" style="font-family: Arial, Helvetica Neue, Helvetica, sans-serif;">var typeope</tspan><tspan xml:space="preserve" text-rendering="optimizeSpeed" font-size="13.88888888888889" font-weight="normal" font-style="normal" fill="#333333" opacity="1" x="18.127" text-anchor="start" y="28.125" textLength="121.85653686523438" style="font-family: Arial, Helvetica Neue, Helvetica, sans-serif;">=prompt("Ingrese la</tspan><tspan xml:space="preserve" text-rendering="optimizeSpeed" font-size="13.88888888888889" font-weight="normal" font-style="normal" fill="#333333" opacity="1" x="12.666" text-anchor="start" y="43.75" textLength="132.77915954589844" style="font-family: Arial, Helvetica Neue, Helvetica, sans-serif;">Operación que desea</tspan><tspan xml:space="preserve" text-rendering="optimizeSpeed" font-size="13.88888888888889" font-weight="normal" font-style="normal" fill="#333333" opacity="1" x="11.913" text-anchor="start" y="59.375" textLength="134.28414916992188" style="font-family: Arial, Helvetica Neue, Helvetica, sans-serif;">realizar 1. encriptar 2.</tspan><tspan xml:space="preserve" text-rendering="optimizeSpeed" font-size="13.88888888888889" font-weight="normal" font-style="normal" fill="#333333" opacity="1" x="15.625" text-anchor="start" y="75" textLength="130.71783447265625" style="font-family: Arial, Helvetica Neue, Helvetica, sans-serif;">desencriptar 3. salir")</tspan></text></g></g><g width="149.667" height="75.167" transform="scale(1,1) translate(353.385,1287.911)"><g transform="scale(1,1) translate(0,0)" stroke="#7F7F7F" fill="url(#7b6c5aea-73de-4f30-8ad1-9d49547e4c04)" stroke-opacity="1" filter="url(#a7b59569-b4ee-4c27-b265-38807b9e234e)"><linearGradient id="7b6c5aea-73de-4f30-8ad1-9d49547e4c04" x1="74.33333333333333" y1="0" x2="74.33333333333333" y2="74.26648853858458" gradientUnits="userSpaceOnUse"><stop offset="0%" style="stop-color:#C4D5E6;stop-opacity:1;"/><stop offset="100%" style="stop-color:#B6CDE4;stop-opacity:1;"/></linearGradient><path d="M0,64.5 L0,0 L148.667,0 L148.667,64.5 L147.902,64.142 L147.138,63.792 L146.374,63.449 L145.611,63.114 L144.847,62.785 L144.083,62.464 L143.32,62.15 L142.557,61.844 L141.793,61.545 L141.03,61.253 L140.267,60.968 L139.505,60.691 L138.742,60.421 L137.98,60.158 L137.217,59.903 L136.455,59.655 L135.693,59.414 L134.931,59.18 L134.169,58.954 L133.408,58.735 L132.646,58.524 L131.885,58.319 L131.124,58.122 L130.362,57.933 L129.601,57.75 L128.841,57.575 L128.08,57.407 L127.319,57.247 L126.559,57.094 L125.799,56.948 L125.038,56.809 L124.278,56.678 L123.519,56.554 L122.759,56.437 L121.999,56.327 L121.24,56.225 L120.48,56.13 L119.721,56.043 L118.962,55.963 L118.203,55.89 L117.444,55.824 L116.686,55.765 L115.927,55.714 L115.169,55.671 L114.41,55.634 L113.652,55.605 L112.894,55.583 L112.137,55.568 L111.379,55.561 L110.621,55.561 L109.864,55.568 L109.106,55.583 L108.349,55.605 L107.592,55.634 L106.835,55.671 L106.079,55.714 L105.322,55.765 L104.566,55.824 L103.809,55.89 L103.053,55.963 L102.297,56.043 L101.541,56.13 L100.785,56.225 L100.029,56.327 L99.274,56.437 L98.519,56.554 L97.763,56.678 L97.008,56.809 L96.253,56.948 L95.498,57.094 L94.744,57.247 L93.989,57.407 L93.235,57.575 L92.48,57.75 L91.726,57.933 L90.972,58.122 L90.218,58.319 L89.464,58.524 L88.711,58.735 L87.957,58.954 L87.204,59.18 L86.451,59.414 L85.698,59.655 L84.945,59.903 L84.192,60.158 L83.439,60.421 L82.687,60.691 L81.934,60.968 L81.182,61.253 L80.43,61.545 L79.678,61.844 L78.926,62.15 L78.174,62.464 L77.423,62.785 L76.671,63.114 L75.92,63.449 L75.169,63.792 L74.418,64.142 L73.667,64.5 L72.863,64.891 L72.06,65.273 L71.258,65.648 L70.458,66.015 L69.658,66.374 L68.86,66.724 L68.064,67.067 L67.268,67.402 L66.474,67.729 L65.681,68.048 L64.889,68.359 L64.098,68.662 L63.309,68.957 L62.521,69.244 L61.734,69.523 L60.948,69.794 L60.163,70.057 L59.38,70.312 L58.598,70.559 L57.817,70.798 L57.038,71.03 L56.259,71.253 L55.482,71.468 L54.706,71.675 L53.931,71.875 L53.158,72.066 L52.386,72.249 L51.615,72.425 L50.845,72.592 L50.076,72.752 L49.309,72.903 L48.543,73.047 L47.778,73.182 L47.014,73.31 L46.252,73.429 L45.49,73.541 L44.73,73.645 L43.972,73.74 L43.214,73.828 L42.458,73.908 L41.702,73.979 L40.949,74.043 L40.196,74.099 L39.444,74.147 L38.694,74.187 L37.945,74.219 L37.197,74.243 L36.451,74.259 L35.706,74.266 L34.961,74.266 L34.219,74.259 L33.477,74.243 L32.736,74.219 L31.997,74.187 L31.259,74.147 L30.522,74.099 L29.787,74.043 L29.053,73.979 L28.32,73.908 L27.588,73.828 L26.857,73.74 L26.128,73.645 L25.399,73.541 L24.672,73.429 L23.947,73.31 L23.222,73.182 L22.499,73.047 L21.777,72.903 L21.056,72.752 L20.336,72.592 L19.618,72.425 L18.901,72.249 L18.185,72.066 L17.47,71.875 L16.757,71.675 L16.044,71.468 L15.333,71.253 L14.624,71.03 L13.915,70.798 L13.208,70.559 L12.501,70.312 L11.796,70.057 L11.093,69.794 L10.39,69.523 L9.689,69.244 L8.989,68.957 L8.29,68.662 L7.593,68.359 L6.896,68.048 L6.201,67.729 L5.507,67.402 L4.815,67.067 L4.123,66.724 L3.433,66.374 L2.744,66.015 L2.056,65.648 L1.369,65.273 L0.684,64.891 L0,64.5 z" stroke-width="1" stroke-dasharray="none"/></g><g width="144.66666666666666" height="46.166666666666664" transform="scale(1,1) translate(2.5,2.5)"><text width="144.66666666666666" height="15.624999046325684" transform="scale(1,1) translate(0,15.27083381017049)" xml:space="preserve"><tspan xml:space="preserve" text-rendering="optimizeSpeed" font-size="13.88888888888889" font-weight="normal" font-style="normal" fill="#333333" opacity="1" x="20.236" text-anchor="start" y="12.5" textLength="104.19468688964844" style="font-family: Arial, Helvetica Neue, Helvetica, sans-serif;">Frase encriptada</tspan></text></g></g><g width="0" height="1037.313" transform="scale(1,1) translate(697.052,392.167)"><g fill="#545454" stroke="#545454" stroke-opacity="1" transform="scale(1,1) translate(0,0)"><path fill="none" stroke-width="1" stroke-dasharray="none" d="M0,50 L0,50 M0,0 L0,40 M0,1037.313 L0,1037.313 M0,50 L0,50 M0,135.167 L0,175.167 M0,286.167 L0,326.167 M0,541.667 L0,581.667 M0,693.526 L0,733.526 M0,911.146 L0,951.146"/><g><g stroke-dasharray="none"><path d="M5,40L0,50L-5,40z" stroke="none" fill-opacity="1"/></g><g stroke-dasharray="none"><path d="M5,175.167L0,185.167L-5,175.167z" stroke="none" fill-opacity="1"/></g><g stroke-dasharray="none"><path d="M5,326.167L0,336.167L-5,326.167z" stroke="none" fill-opacity="1"/></g><g stroke-dasharray="none"><path d="M5,581.667L0,591.667L-5,581.667z" stroke="none" fill-opacity="1"/></g><g stroke-dasharray="none"><path d="M5,733.526L0,743.526L-5,733.526z" stroke="none" fill-opacity="1"/></g><g stroke-dasharray="none"><path d="M5,951.146L0,961.146L-5,951.146z" stroke="none" fill-opacity="1"/></g></g></g><g stroke-width="0" stroke-dasharray="none" fill="#FFFFFF" opacity="1" width="15.119" height="17.625" transform="scale(1,1) translate(-7.56,16.188)"><rect width="15.119" height="17.625"/></g><g width="13.11925220489502" height="50" transform="scale(1,1) translate(-6.56,17.188)"><text width="13.11925220489502" height="15.624999046325684" transform="scale(1,1) translate(0,0)" xml:space="preserve"><tspan xml:space="preserve" text-rendering="optimizeSpeed" font-size="13.88888888888889" font-weight="normal" font-style="normal" fill="#333333" opacity="1" x="0" text-anchor="start" y="12.5" textLength="13.11925220489502" style="font-family: Arial, Helvetica Neue, Helvetica, sans-serif;">SI</tspan></text></g></g><g width="200" height="100" transform="scale(1,1) translate(597.052,292.167)"><g transform="scale(1,1) translate(0,0)" stroke="#7F7F7F" fill="url(#47a59e9f-54b9-45f7-b448-44c8a0ea58e0)" stroke-opacity="1" filter="url(#a7b59569-b4ee-4c27-b265-38807b9e234e)"><linearGradient id="47a59e9f-54b9-45f7-b448-44c8a0ea58e0" x1="100" y1="0" x2="100" y2="100" gradientUnits="userSpaceOnUse"><stop offset="0%" style="stop-color:#C4D5E6;stop-opacity:1;"/><stop offset="100%" style="stop-color:#B6CDE4;stop-opacity:1;"/></linearGradient><path d="M100,0 L200,50 L100,100 L0,50 L100,0 z" stroke-width="1" stroke-dasharray="none"/></g><g width="99.5" height="49.5" transform="scale(1,1) translate(50.333,25.333)"><text width="99.5" height="31.249998092651367" transform="scale(1,1) translate(0,9.125000953674316)" xml:space="preserve"><tspan xml:space="preserve" text-rendering="optimizeSpeed" font-size="13.88888888888889" font-weight="normal" font-style="normal" fill="#333333" opacity="1" x="35.085" text-anchor="start" y="12.5" textLength="25.472370147705078" style="font-family: Arial, Helvetica Neue, Helvetica, sans-serif;">else</tspan><tspan xml:space="preserve" text-rendering="optimizeSpeed" font-size="13.88888888888889" font-weight="normal" font-style="normal" fill="#333333" opacity="1" x="12.318" text-anchor="start" y="28.125" textLength="74.8645133972168" style="font-family: Arial, Helvetica Neue, Helvetica, sans-serif;">if(menú==2)</tspan></text></g></g><g width="168.167" height="84.167" transform="scale(1,1) translate(613.052,442.167)"><g transform="scale(1,1) translate(0,0)" stroke="#7F7F7F" fill="url(#aee86d08-cce3-4259-baad-2e720371ff4f)" stroke-opacity="1" filter="url(#a7b59569-b4ee-4c27-b265-38807b9e234e)"><linearGradient id="aee86d08-cce3-4259-baad-2e720371ff4f" x1="84.08333333333333" y1="0" x2="84.08333333333333" y2="84.16666666666666" gradientUnits="userSpaceOnUse"><stop offset="0%" style="stop-color:#C4D5E6;stop-opacity:1;"/><stop offset="100%" style="stop-color:#B6CDE4;stop-opacity:1;"/></linearGradient><path d="M20,0 L168.167,0 L148.167,84.167 L0,84.167 L20,0 z" stroke-width="1" stroke-dasharray="none"/></g><g width="123.75605762933856" height="62.499996185302734" transform="scale(1,1) translate(22.205,12.304)"><text width="123.75605762933856" height="62.499996185302734" transform="scale(1,1) translate(0,0)" xml:space="preserve"><tspan xml:space="preserve" text-rendering="optimizeSpeed" font-size="13.88888888888889" font-weight="normal" font-style="normal" fill="#333333" opacity="1" x="36.609" text-anchor="start" y="12.5" textLength="46.68013000488281" style="font-family: Arial, Helvetica Neue, Helvetica, sans-serif;">var str=</tspan><tspan xml:space="preserve" text-rendering="optimizeSpeed" font-size="13.88888888888889" font-weight="normal" font-style="normal" fill="#333333" opacity="1" x="3.075" text-anchor="start" y="28.125" textLength="113.7476806640625" style="font-family: Arial, Helvetica Neue, Helvetica, sans-serif;">prompt("Ingrese la</tspan><tspan xml:space="preserve" text-rendering="optimizeSpeed" font-size="13.88888888888889" font-weight="normal" font-style="normal" fill="#333333" opacity="1" x="31.775" text-anchor="start" y="43.75" textLength="56.348388671875" style="font-family: Arial, Helvetica Neue, Helvetica, sans-serif;">el texto a</tspan><tspan xml:space="preserve" text-rendering="optimizeSpeed" font-size="13.88888888888889" font-weight="normal" font-style="normal" fill="#333333" opacity="1" x="30.09" text-anchor="start" y="59.375" textLength="63.5758056640625" style="font-family: Arial, Helvetica Neue, Helvetica, sans-serif;">encriptar")</tspan></text></g></g><g width="200.667" height="0" transform="scale(1,1) translate(797.052,627.333)"><g fill="#545454" stroke="#545454" stroke-opacity="1" transform="scale(1,1) translate(0,0)"><path fill="none" stroke-width="1" stroke-dasharray="none" d="M50,0 L50,0 M0,0 L40,0 M200.667,0 L200.667,0 M50,0 L50,0"/><g><g stroke-dasharray="none"><path d="M40,-5L50,0L40,5z" stroke="none" fill-opacity="1"/></g></g></g></g><g width="200" height="100" transform="scale(1,1) translate(597.052,577.333)"><g transform="scale(1,1) translate(0,0)" stroke="#7F7F7F" fill="url(#92f76ed8-cd96-4c8f-8d42-cdf8865ded9d)" stroke-opacity="1" filter="url(#a7b59569-b4ee-4c27-b265-38807b9e234e)"><linearGradient id="92f76ed8-cd96-4c8f-8d42-cdf8865ded9d" x1="100" y1="0" x2="100" y2="100" gradientUnits="userSpaceOnUse"><stop offset="0%" style="stop-color:#C4D5E6;stop-opacity:1;"/><stop offset="100%" style="stop-color:#B6CDE4;stop-opacity:1;"/></linearGradient><path d="M100,0 L200,50 L100,100 L0,50 L100,0 z" stroke-width="1" stroke-dasharray="none"/></g><g width="99.5" height="49.5" transform="scale(1,1) translate(50.333,25.167)"><text width="99.5" height="31.249998092651367" transform="scale(1,1) translate(0,9.125000953674316)" xml:space="preserve"><tspan xml:space="preserve" text-rendering="optimizeSpeed" font-size="13.88888888888889" font-weight="normal" font-style="normal" fill="#333333" opacity="1" x="5.277" text-anchor="start" y="12.5" textLength="85.08868408203125" style="font-family: Arial, Helvetica Neue, Helvetica, sans-serif;">if(str ="String"</tspan><tspan xml:space="preserve" text-rendering="optimizeSpeed" font-size="13.88888888888889" font-weight="normal" font-style="normal" fill="#333333" opacity="1" x="15.694" text-anchor="start" y="28.125" textLength="68.11163330078125" style="font-family: Arial, Helvetica Neue, Helvetica, sans-serif;">&amp;&amp; str!= "")</tspan></text></g></g><g width="224.167" height="204.5" transform="scale(1,1) translate(585.052,728.333)"><g stroke="#7F7F7F" opacity="1" stroke-width="1" stroke-dasharray="none" width="224.167" height="204.5" transform="scale(1,1) translate(0,0)" fill="url(#c7b6109a-f772-4f10-8b5d-f3cdce454c92)" stroke-opacity="1" filter="url(#a7b59569-b4ee-4c27-b265-38807b9e234e)"><linearGradient id="c7b6109a-f772-4f10-8b5d-f3cdce454c92" x1="112.0835" y1="0" x2="112.0835" y2="204.5" gradientUnits="userSpaceOnUse"><stop offset="0%" style="stop-color:#C4D5E6;stop-opacity:1;"/><stop offset="100%" style="stop-color:#B6CDE4;stop-opacity:1;"/></linearGradient><rect width="224.167" height="204.5"/></g><g width="219.16666666666666" height="199.5" transform="scale(1,1) translate(2.5,2.5)"><text width="219.16666666666666" height="62.499996185302734" transform="scale(1,1) translate(0,68.50000190734863)" xml:space="preserve"><tspan xml:space="preserve" text-rendering="optimizeSpeed" font-size="13.88888888888889" font-weight="normal" font-style="normal" fill="#333333" opacity="1" x="66.947" text-anchor="start" y="12.5" textLength="85.27175903320312" style="font-family: Arial, Helvetica Neue, Helvetica, sans-serif;">var newarr=[];</tspan><tspan xml:space="preserve" text-rendering="optimizeSpeed" font-size="13.88888888888889" font-weight="normal" font-style="normal" fill="#333333" opacity="1" x="36.065" text-anchor="start" y="28.125" textLength="147.0373077392578" style="font-family: Arial, Helvetica Neue, Helvetica, sans-serif;">for(i=0,i&lt;=str.length;i++)</tspan></text></g></g><g width="149.667" height="75.167" transform="scale(1,1) translate(622.219,1353.313)"><g transform="scale(1,1) translate(0,0)" stroke="#7F7F7F" fill="url(#09dbba9f-7ce0-4179-9cc3-a342e02bba56)" stroke-opacity="1" filter="url(#a7b59569-b4ee-4c27-b265-38807b9e234e)"><linearGradient id="09dbba9f-7ce0-4179-9cc3-a342e02bba56" x1="74.33333333333333" y1="0" x2="74.33333333333333" y2="74.26648853858458" gradientUnits="userSpaceOnUse"><stop offset="0%" style="stop-color:#C4D5E6;stop-opacity:1;"/><stop offset="100%" style="stop-color:#B6CDE4;stop-opacity:1;"/></linearGradient><path d="M0,64.5 L0,0 L148.667,0 L148.667,64.5 L147.902,64.142 L147.138,63.792 L146.374,63.449 L145.611,63.114 L144.847,62.785 L144.083,62.464 L143.32,62.15 L142.557,61.844 L141.793,61.545 L141.03,61.253 L140.267,60.968 L139.505,60.691 L138.742,60.421 L137.98,60.158 L137.217,59.903 L136.455,59.655 L135.693,59.414 L134.931,59.18 L134.169,58.954 L133.408,58.735 L132.646,58.524 L131.885,58.319 L131.124,58.122 L130.362,57.933 L129.601,57.75 L128.841,57.575 L128.08,57.407 L127.319,57.247 L126.559,57.094 L125.799,56.948 L125.038,56.809 L124.278,56.678 L123.519,56.554 L122.759,56.437 L121.999,56.327 L121.24,56.225 L120.48,56.13 L119.721,56.043 L118.962,55.963 L118.203,55.89 L117.444,55.824 L116.686,55.765 L115.927,55.714 L115.169,55.671 L114.41,55.634 L113.652,55.605 L112.894,55.583 L112.137,55.568 L111.379,55.561 L110.621,55.561 L109.864,55.568 L109.106,55.583 L108.349,55.605 L107.592,55.634 L106.835,55.671 L106.079,55.714 L105.322,55.765 L104.566,55.824 L103.809,55.89 L103.053,55.963 L102.297,56.043 L101.541,56.13 L100.785,56.225 L100.029,56.327 L99.274,56.437 L98.519,56.554 L97.763,56.678 L97.008,56.809 L96.253,56.948 L95.498,57.094 L94.744,57.247 L93.989,57.407 L93.235,57.575 L92.48,57.75 L91.726,57.933 L90.972,58.122 L90.218,58.319 L89.464,58.524 L88.711,58.735 L87.957,58.954 L87.204,59.18 L86.451,59.414 L85.698,59.655 L84.945,59.903 L84.192,60.158 L83.439,60.421 L82.687,60.691 L81.934,60.968 L81.182,61.253 L80.43,61.545 L79.678,61.844 L78.926,62.15 L78.174,62.464 L77.423,62.785 L76.671,63.114 L75.92,63.449 L75.169,63.792 L74.418,64.142 L73.667,64.5 L72.863,64.891 L72.06,65.273 L71.258,65.648 L70.458,66.015 L69.658,66.374 L68.86,66.724 L68.064,67.067 L67.268,67.402 L66.474,67.729 L65.681,68.048 L64.889,68.359 L64.098,68.662 L63.309,68.957 L62.521,69.244 L61.734,69.523 L60.948,69.794 L60.163,70.057 L59.38,70.312 L58.598,70.559 L57.817,70.798 L57.038,71.03 L56.259,71.253 L55.482,71.468 L54.706,71.675 L53.931,71.875 L53.158,72.066 L52.386,72.249 L51.615,72.425 L50.845,72.592 L50.076,72.752 L49.309,72.903 L48.543,73.047 L47.778,73.182 L47.014,73.31 L46.252,73.429 L45.49,73.541 L44.73,73.645 L43.972,73.74 L43.214,73.828 L42.458,73.908 L41.702,73.979 L40.949,74.043 L40.196,74.099 L39.444,74.147 L38.694,74.187 L37.945,74.219 L37.197,74.243 L36.451,74.259 L35.706,74.266 L34.961,74.266 L34.219,74.259 L33.477,74.243 L32.736,74.219 L31.997,74.187 L31.259,74.147 L30.522,74.099 L29.787,74.043 L29.053,73.979 L28.32,73.908 L27.588,73.828 L26.857,73.74 L26.128,73.645 L25.399,73.541 L24.672,73.429 L23.947,73.31 L23.222,73.182 L22.499,73.047 L21.777,72.903 L21.056,72.752 L20.336,72.592 L19.618,72.425 L18.901,72.249 L18.185,72.066 L17.47,71.875 L16.757,71.675 L16.044,71.468 L15.333,71.253 L14.624,71.03 L13.915,70.798 L13.208,70.559 L12.501,70.312 L11.796,70.057 L11.093,69.794 L10.39,69.523 L9.689,69.244 L8.989,68.957 L8.29,68.662 L7.593,68.359 L6.896,68.048 L6.201,67.729 L5.507,67.402 L4.815,67.067 L4.123,66.724 L3.433,66.374 L2.744,66.015 L2.056,65.648 L1.369,65.273 L0.684,64.891 L0,64.5 z" stroke-width="1" stroke-dasharray="none"/></g><g width="144.66666666666666" height="46.33333333333333" transform="scale(1,1) translate(2.5,2.5)"><text width="144.66666666666666" height="15.624999046325684" transform="scale(1,1) translate(0,15.354167143503823)" xml:space="preserve"><tspan xml:space="preserve" text-rendering="optimizeSpeed" font-size="13.88888888888889" font-weight="normal" font-style="normal" fill="#333333" opacity="1" x="9.042" text-anchor="start" y="12.5" textLength="126.58218383789062" style="font-family: Arial, Helvetica Neue, Helvetica, sans-serif;">Frase desencriptada</tspan></text></g></g><g width="0" height="126.167" transform="scale(1,1) translate(948.385,392)"><g fill="#545454" stroke="#545454" stroke-opacity="1" transform="scale(1,1) translate(0,0)"><path fill="none" stroke-width="1" stroke-dasharray="none" d="M0,50 L0,50 M0,0 L0,40 M0,126.167 L0,126.167 M0,50 L0,50"/><g><g stroke-dasharray="none"><path d="M5,40L0,50L-5,40z" stroke="none" fill-opacity="1"/></g></g></g></g><g width="200.667" height="99.5" transform="scale(1,1) translate(848.052,292.5)"><g transform="scale(1,1) translate(0,0)" stroke="#7F7F7F" fill="url(#3ab103b0-7e24-4d7b-a2ab-5696cfdd246d)" stroke-opacity="1" filter="url(#a7b59569-b4ee-4c27-b265-38807b9e234e)"><linearGradient id="3ab103b0-7e24-4d7b-a2ab-5696cfdd246d" x1="100.33333333333333" y1="0" x2="100.33333333333333" y2="99.5" gradientUnits="userSpaceOnUse"><stop offset="0%" style="stop-color:#C4D5E6;stop-opacity:1;"/><stop offset="100%" style="stop-color:#B6CDE4;stop-opacity:1;"/></linearGradient><path d="M100.333,0 L200.667,49.75 L100.333,99.5 L0,49.75 L100.333,0 z" stroke-width="1" stroke-dasharray="none"/></g><g width="99.83333333333333" height="49.25" transform="scale(1,1) translate(50.417,25.125)"><text width="99.83333333333333" height="31.249998092651367" transform="scale(1,1) translate(0,9.000000953674316)" xml:space="preserve"><tspan xml:space="preserve" text-rendering="optimizeSpeed" font-size="13.88888888888889" font-weight="normal" font-style="normal" fill="#333333" opacity="1" x="35.252" text-anchor="start" y="12.5" textLength="25.472370147705078" style="font-family: Arial, Helvetica Neue, Helvetica, sans-serif;">else</tspan><tspan xml:space="preserve" text-rendering="optimizeSpeed" font-size="13.88888888888889" font-weight="normal" font-style="normal" fill="#333333" opacity="1" x="12.484" text-anchor="start" y="28.125" textLength="74.8645133972168" style="font-family: Arial, Helvetica Neue, Helvetica, sans-serif;">if(menú==3)</tspan></text></g></g><g width="149.667" height="75.167" transform="scale(1,1) translate(873.552,442)"><g transform="scale(1,1) translate(0,0)" stroke="#7F7F7F" fill="url(#b31630e8-24b5-413a-8a67-16a2a46a53f1)" stroke-opacity="1" filter="url(#a7b59569-b4ee-4c27-b265-38807b9e234e)"><linearGradient id="b31630e8-24b5-413a-8a67-16a2a46a53f1" x1="74.33333333333333" y1="0" x2="74.33333333333333" y2="74.26648853858458" gradientUnits="userSpaceOnUse"><stop offset="0%" style="stop-color:#C4D5E6;stop-opacity:1;"/><stop offset="100%" style="stop-color:#B6CDE4;stop-opacity:1;"/></linearGradient><path d="M0,64.5 L0,0 L148.667,0 L148.667,64.5 L147.902,64.142 L147.138,63.792 L146.374,63.449 L145.611,63.114 L144.847,62.785 L144.083,62.464 L143.32,62.15 L142.557,61.844 L141.793,61.545 L141.03,61.253 L140.267,60.968 L139.505,60.691 L138.742,60.421 L137.98,60.158 L137.217,59.903 L136.455,59.655 L135.693,59.414 L134.931,59.18 L134.169,58.954 L133.408,58.735 L132.646,58.524 L131.885,58.319 L131.124,58.122 L130.362,57.933 L129.601,57.75 L128.841,57.575 L128.08,57.407 L127.319,57.247 L126.559,57.094 L125.799,56.948 L125.038,56.809 L124.278,56.678 L123.519,56.554 L122.759,56.437 L121.999,56.327 L121.24,56.225 L120.48,56.13 L119.721,56.043 L118.962,55.963 L118.203,55.89 L117.444,55.824 L116.686,55.765 L115.927,55.714 L115.169,55.671 L114.41,55.634 L113.652,55.605 L112.894,55.583 L112.137,55.568 L111.379,55.561 L110.621,55.561 L109.864,55.568 L109.106,55.583 L108.349,55.605 L107.592,55.634 L106.835,55.671 L106.079,55.714 L105.322,55.765 L104.566,55.824 L103.809,55.89 L103.053,55.963 L102.297,56.043 L101.541,56.13 L100.785,56.225 L100.029,56.327 L99.274,56.437 L98.519,56.554 L97.763,56.678 L97.008,56.809 L96.253,56.948 L95.498,57.094 L94.744,57.247 L93.989,57.407 L93.235,57.575 L92.48,57.75 L91.726,57.933 L90.972,58.122 L90.218,58.319 L89.464,58.524 L88.711,58.735 L87.957,58.954 L87.204,59.18 L86.451,59.414 L85.698,59.655 L84.945,59.903 L84.192,60.158 L83.439,60.421 L82.687,60.691 L81.934,60.968 L81.182,61.253 L80.43,61.545 L79.678,61.844 L78.926,62.15 L78.174,62.464 L77.423,62.785 L76.671,63.114 L75.92,63.449 L75.169,63.792 L74.418,64.142 L73.667,64.5 L72.863,64.891 L72.06,65.273 L71.258,65.648 L70.458,66.015 L69.658,66.374 L68.86,66.724 L68.064,67.067 L67.268,67.402 L66.474,67.729 L65.681,68.048 L64.889,68.359 L64.098,68.662 L63.309,68.957 L62.521,69.244 L61.734,69.523 L60.948,69.794 L60.163,70.057 L59.38,70.312 L58.598,70.559 L57.817,70.798 L57.038,71.03 L56.259,71.253 L55.482,71.468 L54.706,71.675 L53.931,71.875 L53.158,72.066 L52.386,72.249 L51.615,72.425 L50.845,72.592 L50.076,72.752 L49.309,72.903 L48.543,73.047 L47.778,73.182 L47.014,73.31 L46.252,73.429 L45.49,73.541 L44.73,73.645 L43.972,73.74 L43.214,73.828 L42.458,73.908 L41.702,73.979 L40.949,74.043 L40.196,74.099 L39.444,74.147 L38.694,74.187 L37.945,74.219 L37.197,74.243 L36.451,74.259 L35.706,74.266 L34.961,74.266 L34.219,74.259 L33.477,74.243 L32.736,74.219 L31.997,74.187 L31.259,74.147 L30.522,74.099 L29.787,74.043 L29.053,73.979 L28.32,73.908 L27.588,73.828 L26.857,73.74 L26.128,73.645 L25.399,73.541 L24.672,73.429 L23.947,73.31 L23.222,73.182 L22.499,73.047 L21.777,72.903 L21.056,72.752 L20.336,72.592 L19.618,72.425 L18.901,72.249 L18.185,72.066 L17.47,71.875 L16.757,71.675 L16.044,71.468 L15.333,71.253 L14.624,71.03 L13.915,70.798 L13.208,70.559 L12.501,70.312 L11.796,70.057 L11.093,69.794 L10.39,69.523 L9.689,69.244 L8.989,68.957 L8.29,68.662 L7.593,68.359 L6.896,68.048 L6.201,67.729 L5.507,67.402 L4.815,67.067 L4.123,66.724 L3.433,66.374 L2.744,66.015 L2.056,65.648 L1.369,65.273 L0.684,64.891 L0,64.5 z" stroke-width="1" stroke-dasharray="none"/></g><g width="144.66666666666666" height="46.33333333333333" transform="scale(1,1) translate(2.5,2.5)"><text width="144.66666666666666" height="31.249998092651367" transform="scale(1,1) translate(0,7.541667620340981)" xml:space="preserve"><tspan xml:space="preserve" text-rendering="optimizeSpeed" font-size="13.88888888888889" font-weight="normal" font-style="normal" fill="#333333" opacity="1" x="6.978" text-anchor="start" y="12.5" textLength="126.8533706665039" style="font-family: Arial, Helvetica Neue, Helvetica, sans-serif;">alert("Gracias por su</tspan><tspan xml:space="preserve" text-rendering="optimizeSpeed" font-size="13.88888888888889" font-weight="normal" font-style="normal" fill="#333333" opacity="1" x="51.739" text-anchor="start" y="28.125" textLength="41.1883544921875" style="font-family: Arial, Helvetica Neue, Helvetica, sans-serif;">visita")</tspan></text></g></g><g width="0" height="116.611" transform="scale(1,1) translate(1174.719,379.667)"><g fill="#545454" stroke="#545454" stroke-opacity="1" transform="scale(1,1) translate(0,0)"><path fill="none" stroke-width="1" stroke-dasharray="none" d="M0,50 L0,50 M0,0 L0,40 M0,116.611 L0,116.611 M0,50 L0,50"/><g><g stroke-dasharray="none"><path d="M5,40L0,50L-5,40z" stroke="none" fill-opacity="1"/></g></g></g></g><g width="150" height="75" transform="scale(1,1) translate(1099.719,304.667)"><g stroke="#545454" opacity="1" stroke-width="1" stroke-dasharray="none" width="150" height="75" transform="scale(1,1) translate(0,0)" fill="url(#33bcaebb-efa0-45fe-8846-6f674d5ce217)" stroke-opacity="1" filter="url(#965cb132-0ed6-4a33-bc61-2cf5563f780d)"><linearGradient id="33bcaebb-efa0-45fe-8846-6f674d5ce217" x1="75" y1="0" x2="75" y2="75" gradientUnits="userSpaceOnUse"><stop offset="0%" style="stop-color:#C4D5E6;stop-opacity:1;"/><stop offset="100%" style="stop-color:#B6CDE4;stop-opacity:1;"/></linearGradient><rect width="150" height="75"/></g><g width="149" height="74" transform="scale(1,1) translate(0.5,0.5)"><text width="149" height="15.624999046325684" transform="scale(1,1) translate(0,29.187500476837158)" xml:space="preserve"><tspan xml:space="preserve" text-rendering="optimizeSpeed" font-size="13.88888888888889" font-weight="normal" font-style="normal" fill="#333333" opacity="1" x="61.764" text-anchor="start" y="12.5" textLength="25.472370147705078" style="font-family: Arial, Helvetica Neue, Helvetica, sans-serif;">else</tspan></text></g></g><g width="149.667" height="75.167" transform="scale(1,1) translate(127.552,590.833)"><g transform="scale(1,1) translate(0,0)" stroke="#7F7F7F" fill="url(#d37fa78e-c675-45bc-ac69-fdd9388c1087)" stroke-opacity="1" filter="url(#a7b59569-b4ee-4c27-b265-38807b9e234e)"><linearGradient id="d37fa78e-c675-45bc-ac69-fdd9388c1087" x1="74.33333333333333" y1="0" x2="74.33333333333333" y2="74.26648853858458" gradientUnits="userSpaceOnUse"><stop offset="0%" style="stop-color:#C4D5E6;stop-opacity:1;"/><stop offset="100%" style="stop-color:#B6CDE4;stop-opacity:1;"/></linearGradient><path d="M0,64.5 L0,0 L148.667,0 L148.667,64.5 L147.902,64.142 L147.138,63.792 L146.374,63.449 L145.611,63.114 L144.847,62.785 L144.083,62.464 L143.32,62.15 L142.557,61.844 L141.793,61.545 L141.03,61.253 L140.267,60.968 L139.505,60.691 L138.742,60.421 L137.98,60.158 L137.217,59.903 L136.455,59.655 L135.693,59.414 L134.931,59.18 L134.169,58.954 L133.408,58.735 L132.646,58.524 L131.885,58.319 L131.124,58.122 L130.362,57.933 L129.601,57.75 L128.841,57.575 L128.08,57.407 L127.319,57.247 L126.559,57.094 L125.799,56.948 L125.038,56.809 L124.278,56.678 L123.519,56.554 L122.759,56.437 L121.999,56.327 L121.24,56.225 L120.48,56.13 L119.721,56.043 L118.962,55.963 L118.203,55.89 L117.444,55.824 L116.686,55.765 L115.927,55.714 L115.169,55.671 L114.41,55.634 L113.652,55.605 L112.894,55.583 L112.137,55.568 L111.379,55.561 L110.621,55.561 L109.864,55.568 L109.106,55.583 L108.349,55.605 L107.592,55.634 L106.835,55.671 L106.079,55.714 L105.322,55.765 L104.566,55.824 L103.809,55.89 L103.053,55.963 L102.297,56.043 L101.541,56.13 L100.785,56.225 L100.029,56.327 L99.274,56.437 L98.519,56.554 L97.763,56.678 L97.008,56.809 L96.253,56.948 L95.498,57.094 L94.744,57.247 L93.989,57.407 L93.235,57.575 L92.48,57.75 L91.726,57.933 L90.972,58.122 L90.218,58.319 L89.464,58.524 L88.711,58.735 L87.957,58.954 L87.204,59.18 L86.451,59.414 L85.698,59.655 L84.945,59.903 L84.192,60.158 L83.439,60.421 L82.687,60.691 L81.934,60.968 L81.182,61.253 L80.43,61.545 L79.678,61.844 L78.926,62.15 L78.174,62.464 L77.423,62.785 L76.671,63.114 L75.92,63.449 L75.169,63.792 L74.418,64.142 L73.667,64.5 L72.863,64.891 L72.06,65.273 L71.258,65.648 L70.458,66.015 L69.658,66.374 L68.86,66.724 L68.064,67.067 L67.268,67.402 L66.474,67.729 L65.681,68.048 L64.889,68.359 L64.098,68.662 L63.309,68.957 L62.521,69.244 L61.734,69.523 L60.948,69.794 L60.163,70.057 L59.38,70.312 L58.598,70.559 L57.817,70.798 L57.038,71.03 L56.259,71.253 L55.482,71.468 L54.706,71.675 L53.931,71.875 L53.158,72.066 L52.386,72.249 L51.615,72.425 L50.845,72.592 L50.076,72.752 L49.309,72.903 L48.543,73.047 L47.778,73.182 L47.014,73.31 L46.252,73.429 L45.49,73.541 L44.73,73.645 L43.972,73.74 L43.214,73.828 L42.458,73.908 L41.702,73.979 L40.949,74.043 L40.196,74.099 L39.444,74.147 L38.694,74.187 L37.945,74.219 L37.197,74.243 L36.451,74.259 L35.706,74.266 L34.961,74.266 L34.219,74.259 L33.477,74.243 L32.736,74.219 L31.997,74.187 L31.259,74.147 L30.522,74.099 L29.787,74.043 L29.053,73.979 L28.32,73.908 L27.588,73.828 L26.857,73.74 L26.128,73.645 L25.399,73.541 L24.672,73.429 L23.947,73.31 L23.222,73.182 L22.499,73.047 L21.777,72.903 L21.056,72.752 L20.336,72.592 L19.618,72.425 L18.901,72.249 L18.185,72.066 L17.47,71.875 L16.757,71.675 L16.044,71.468 L15.333,71.253 L14.624,71.03 L13.915,70.798 L13.208,70.559 L12.501,70.312 L11.796,70.057 L11.093,69.794 L10.39,69.523 L9.689,69.244 L8.989,68.957 L8.29,68.662 L7.593,68.359 L6.896,68.048 L6.201,67.729 L5.507,67.402 L4.815,67.067 L4.123,66.724 L3.433,66.374 L2.744,66.015 L2.056,65.648 L1.369,65.273 L0.684,64.891 L0,64.5 z" stroke-width="1" stroke-dasharray="none"/></g><g width="144.66666666666666" height="46.33333333333333" transform="scale(1,1) translate(2.5,2.5)"><text width="144.66666666666666" height="31.249998092651367" transform="scale(1,1) translate(0,7.541667620340981)" xml:space="preserve"><tspan xml:space="preserve" text-rendering="optimizeSpeed" font-size="13.88888888888889" font-weight="normal" font-style="normal" fill="#333333" opacity="1" x="0" text-anchor="start" y="12.5" textLength="144.62368774414062" style="font-family: Arial, Helvetica Neue, Helvetica, sans-serif;">Alert("Debe ingresar un</tspan><tspan xml:space="preserve" text-rendering="optimizeSpeed" font-size="13.88888888888889" font-weight="normal" font-style="normal" fill="#333333" opacity="1" x="52.505" text-anchor="start" y="28.125" textLength="39.65608215332031" style="font-family: Arial, Helvetica Neue, Helvetica, sans-serif;">texto")</tspan></text></g></g><g width="149.667" height="75.167" transform="scale(1,1) translate(847.052,589.833)"><g transform="scale(1,1) translate(0,0)" stroke="#7F7F7F" fill="url(#c4c0e7f6-ff79-48d7-8bd5-aba742fb2f68)" stroke-opacity="1" filter="url(#a7b59569-b4ee-4c27-b265-38807b9e234e)"><linearGradient id="c4c0e7f6-ff79-48d7-8bd5-aba742fb2f68" x1="74.33333333333333" y1="0" x2="74.33333333333333" y2="74.26648853858458" gradientUnits="userSpaceOnUse"><stop offset="0%" style="stop-color:#C4D5E6;stop-opacity:1;"/><stop offset="100%" style="stop-color:#B6CDE4;stop-opacity:1;"/></linearGradient><path d="M0,64.5 L0,0 L148.667,0 L148.667,64.5 L147.902,64.142 L147.138,63.792 L146.374,63.449 L145.611,63.114 L144.847,62.785 L144.083,62.464 L143.32,62.15 L142.557,61.844 L141.793,61.545 L141.03,61.253 L140.267,60.968 L139.505,60.691 L138.742,60.421 L137.98,60.158 L137.217,59.903 L136.455,59.655 L135.693,59.414 L134.931,59.18 L134.169,58.954 L133.408,58.735 L132.646,58.524 L131.885,58.319 L131.124,58.122 L130.362,57.933 L129.601,57.75 L128.841,57.575 L128.08,57.407 L127.319,57.247 L126.559,57.094 L125.799,56.948 L125.038,56.809 L124.278,56.678 L123.519,56.554 L122.759,56.437 L121.999,56.327 L121.24,56.225 L120.48,56.13 L119.721,56.043 L118.962,55.963 L118.203,55.89 L117.444,55.824 L116.686,55.765 L115.927,55.714 L115.169,55.671 L114.41,55.634 L113.652,55.605 L112.894,55.583 L112.137,55.568 L111.379,55.561 L110.621,55.561 L109.864,55.568 L109.106,55.583 L108.349,55.605 L107.592,55.634 L106.835,55.671 L106.079,55.714 L105.322,55.765 L104.566,55.824 L103.809,55.89 L103.053,55.963 L102.297,56.043 L101.541,56.13 L100.785,56.225 L100.029,56.327 L99.274,56.437 L98.519,56.554 L97.763,56.678 L97.008,56.809 L96.253,56.948 L95.498,57.094 L94.744,57.247 L93.989,57.407 L93.235,57.575 L92.48,57.75 L91.726,57.933 L90.972,58.122 L90.218,58.319 L89.464,58.524 L88.711,58.735 L87.957,58.954 L87.204,59.18 L86.451,59.414 L85.698,59.655 L84.945,59.903 L84.192,60.158 L83.439,60.421 L82.687,60.691 L81.934,60.968 L81.182,61.253 L80.43,61.545 L79.678,61.844 L78.926,62.15 L78.174,62.464 L77.423,62.785 L76.671,63.114 L75.92,63.449 L75.169,63.792 L74.418,64.142 L73.667,64.5 L72.863,64.891 L72.06,65.273 L71.258,65.648 L70.458,66.015 L69.658,66.374 L68.86,66.724 L68.064,67.067 L67.268,67.402 L66.474,67.729 L65.681,68.048 L64.889,68.359 L64.098,68.662 L63.309,68.957 L62.521,69.244 L61.734,69.523 L60.948,69.794 L60.163,70.057 L59.38,70.312 L58.598,70.559 L57.817,70.798 L57.038,71.03 L56.259,71.253 L55.482,71.468 L54.706,71.675 L53.931,71.875 L53.158,72.066 L52.386,72.249 L51.615,72.425 L50.845,72.592 L50.076,72.752 L49.309,72.903 L48.543,73.047 L47.778,73.182 L47.014,73.31 L46.252,73.429 L45.49,73.541 L44.73,73.645 L43.972,73.74 L43.214,73.828 L42.458,73.908 L41.702,73.979 L40.949,74.043 L40.196,74.099 L39.444,74.147 L38.694,74.187 L37.945,74.219 L37.197,74.243 L36.451,74.259 L35.706,74.266 L34.961,74.266 L34.219,74.259 L33.477,74.243 L32.736,74.219 L31.997,74.187 L31.259,74.147 L30.522,74.099 L29.787,74.043 L29.053,73.979 L28.32,73.908 L27.588,73.828 L26.857,73.74 L26.128,73.645 L25.399,73.541 L24.672,73.429 L23.947,73.31 L23.222,73.182 L22.499,73.047 L21.777,72.903 L21.056,72.752 L20.336,72.592 L19.618,72.425 L18.901,72.249 L18.185,72.066 L17.47,71.875 L16.757,71.675 L16.044,71.468 L15.333,71.253 L14.624,71.03 L13.915,70.798 L13.208,70.559 L12.501,70.312 L11.796,70.057 L11.093,69.794 L10.39,69.523 L9.689,69.244 L8.989,68.957 L8.29,68.662 L7.593,68.359 L6.896,68.048 L6.201,67.729 L5.507,67.402 L4.815,67.067 L4.123,66.724 L3.433,66.374 L2.744,66.015 L2.056,65.648 L1.369,65.273 L0.684,64.891 L0,64.5 z" stroke-width="1" stroke-dasharray="none"/></g><g width="144.66666666666666" height="46.33333333333333" transform="scale(1,1) translate(2.5,2.5)"><text width="144.66666666666666" height="31.249998092651367" transform="scale(1,1) translate(0,7.541667620340981)" xml:space="preserve"><tspan xml:space="preserve" text-rendering="optimizeSpeed" font-size="13.88888888888889" font-weight="normal" font-style="normal" fill="#333333" opacity="1" x="0" text-anchor="start" y="12.5" textLength="143.08462524414062" style="font-family: Arial, Helvetica Neue, Helvetica, sans-serif;">alert("Debe ingresar un</tspan><tspan xml:space="preserve" text-rendering="optimizeSpeed" font-size="13.88888888888889" font-weight="normal" font-style="normal" fill="#333333" opacity="1" x="52.505" text-anchor="start" y="28.125" textLength="39.65608215332031" style="font-family: Arial, Helvetica Neue, Helvetica, sans-serif;">texto")</tspan></text></g></g><g width="322.719" height="0" transform="scale(1,1) translate(5.5,1005.833)"><g fill="#545454" stroke="#545454" stroke-opacity="1" transform="scale(1,1) translate(0,0)"><path fill="none" stroke-width="1" stroke-dasharray="none" d="M0,0 L0,0 M0,0 L0,0 M282.719,0 L322.719,0 M0,0 L0,0"/><g><g stroke-dasharray="none"><path d="M282.719,5L272.719,0L282.719,-5z" stroke="none" fill-opacity="1"/></g></g></g></g><g width="200" height="100" transform="scale(1,1) translate(328.219,955.833)"><g transform="scale(1,1) translate(0,0)" stroke="#7F7F7F" fill="url(#b04792e6-c2f8-41ed-8589-cbd79565027e)" stroke-opacity="1" filter="url(#a7b59569-b4ee-4c27-b265-38807b9e234e)"><linearGradient id="b04792e6-c2f8-41ed-8589-cbd79565027e" x1="100" y1="0" x2="100" y2="100" gradientUnits="userSpaceOnUse"><stop offset="0%" style="stop-color:#C4D5E6;stop-opacity:1;"/><stop offset="100%" style="stop-color:#B6CDE4;stop-opacity:1;"/></linearGradient><path d="M100,0 L200,50 L100,100 L0,50 L100,0 z" stroke-width="1" stroke-dasharray="none"/></g><g width="99.5" height="49.5" transform="scale(1,1) translate(50.333,25.333)"><text width="99.5" height="31.249998092651367" transform="scale(1,1) translate(0,9.125000953674316)" xml:space="preserve"><tspan xml:space="preserve" text-rendering="optimizeSpeed" font-size="13.88888888888889" font-weight="normal" font-style="normal" fill="#333333" opacity="1" x="4.606" text-anchor="start" y="12.5" textLength="90.2889404296875" style="font-family: Arial, Helvetica Neue, Helvetica, sans-serif;">if(str.charCode</tspan><tspan xml:space="preserve" text-rendering="optimizeSpeed" font-size="13.88888888888889" font-weight="normal" font-style="normal" fill="#333333" opacity="1" x="23.118" text-anchor="start" y="28.125" textLength="53.26348876953125" style="font-family: Arial, Helvetica Neue, Helvetica, sans-serif;">At &lt;=90)</tspan></text></g></g><g width="260.156" height="130.078" transform="scale(1,1) translate(298.141,1106.833)"><g stroke="#7F7F7F" opacity="1" stroke-width="1" stroke-dasharray="none" width="260.156" height="130.078" transform="scale(1,1) translate(0,0)" fill="url(#69eb9c90-590a-458a-9597-f7e8b9ee51ee)" stroke-opacity="1" filter="url(#a7b59569-b4ee-4c27-b265-38807b9e234e)"><linearGradient id="69eb9c90-590a-458a-9597-f7e8b9ee51ee" x1="130.078" y1="0" x2="130.078" y2="130.078" gradientUnits="userSpaceOnUse"><stop offset="0%" style="stop-color:#C4D5E6;stop-opacity:1;"/><stop offset="100%" style="stop-color:#B6CDE4;stop-opacity:1;"/></linearGradient><rect width="260.156" height="130.078"/></g><g width="255.15623927116394" height="125.07811963558197" transform="scale(1,1) translate(2.5,2.5)"><text width="255.15623927116394" height="124.99999237060547" transform="scale(1,1) translate(0,0.03906363248825073)" xml:space="preserve"><tspan xml:space="preserve" text-rendering="optimizeSpeed" font-size="13.88888888888889" font-weight="normal" font-style="normal" fill="#333333" opacity="1" x="6.783" text-anchor="start" y="12.5" textLength="241.59091186523438" style="font-family: Arial, Helvetica Neue, Helvetica, sans-serif;">- Obtener el código ASCII de cada letra</tspan><tspan xml:space="preserve" text-rendering="optimizeSpeed" font-size="13.88888888888889" font-weight="normal" font-style="normal" fill="#333333" opacity="1" x="3.318" text-anchor="start" y="28.125" textLength="248.52008056640625" style="font-family: Arial, Helvetica Neue, Helvetica, sans-serif;">- Calculamos el código ASCII encriptado</tspan><tspan xml:space="preserve" text-rendering="optimizeSpeed" font-size="13.88888888888889" font-weight="normal" font-style="normal" fill="#333333" opacity="1" x="65.446" text-anchor="start" y="43.75" textLength="124.26341247558594" style="font-family: Arial, Helvetica Neue, Helvetica, sans-serif;">((x -65)+33)%26+65</tspan><tspan xml:space="preserve" text-rendering="optimizeSpeed" font-size="13.88888888888889" font-weight="normal" font-style="normal" fill="#333333" opacity="1" x="29.17" text-anchor="start" y="59.375" textLength="192.95816040039062" style="font-family: Arial, Helvetica Neue, Helvetica, sans-serif;">- Obtenemos la letra del código</tspan><tspan xml:space="preserve" text-rendering="optimizeSpeed" font-size="13.88888888888889" font-weight="normal" font-style="normal" fill="#333333" opacity="1" x="93.227" text-anchor="start" y="75" textLength="68.70149230957031" style="font-family: Arial, Helvetica Neue, Helvetica, sans-serif;">encriptado.</tspan><tspan xml:space="preserve" text-rendering="optimizeSpeed" font-size="13.88888888888889" font-weight="normal" font-style="normal" fill="#333333" opacity="1" x="12.186" text-anchor="start" y="90.625" textLength="226.92581176757812" style="font-family: Arial, Helvetica Neue, Helvetica, sans-serif;">- Agregamos la letra encriptada en el</tspan><tspan xml:space="preserve" text-rendering="optimizeSpeed" font-size="13.88888888888889" font-weight="normal" font-style="normal" fill="#333333" opacity="1" x="91.695" text-anchor="start" y="106.25" textLength="71.76600646972656" style="font-family: Arial, Helvetica Neue, Helvetica, sans-serif;">array vacio.</tspan><tspan xml:space="preserve" text-rendering="optimizeSpeed" font-size="13.88888888888889" font-weight="normal" font-style="normal" fill="#333333" opacity="1" x="9.491" text-anchor="start" y="121.875" textLength="236.17373657226562" style="font-family: Arial, Helvetica Neue, Helvetica, sans-serif;">- Convertimos el array en una cadena.</tspan></text></g></g><g width="271.719" height="135.859" transform="scale(1,1) translate(5.5,937.904)"><g stroke="#7F7F7F" opacity="1" stroke-width="1" stroke-dasharray="none" width="271.719" height="135.859" transform="scale(1,1) translate(0,0)" fill="url(#69df3b78-52e9-4810-9286-97f5a29c4097)" stroke-opacity="1" filter="url(#a7b59569-b4ee-4c27-b265-38807b9e234e)"><linearGradient id="69df3b78-52e9-4810-9286-97f5a29c4097" x1="135.8595" y1="0" x2="135.8595" y2="135.859" gradientUnits="userSpaceOnUse"><stop offset="0%" style="stop-color:#C4D5E6;stop-opacity:1;"/><stop offset="100%" style="stop-color:#B6CDE4;stop-opacity:1;"/></linearGradient><rect width="271.719" height="135.859"/></g><g width="266.7187340259552" height="130.8593670129776" transform="scale(1,1) translate(2.5,2.5)"><text width="266.7187340259552" height="124.99999237060547" transform="scale(1,1) translate(0,2.9296873211860657)" xml:space="preserve"><tspan xml:space="preserve" text-rendering="optimizeSpeed" font-size="13.88888888888889" font-weight="normal" font-style="normal" fill="#333333" opacity="1" x="12.564" text-anchor="start" y="12.5" textLength="241.59091186523438" style="font-family: Arial, Helvetica Neue, Helvetica, sans-serif;">- Obtener el código ASCII de cada letra</tspan><tspan xml:space="preserve" text-rendering="optimizeSpeed" font-size="13.88888888888889" font-weight="normal" font-style="normal" fill="#333333" opacity="1" x="9.099" text-anchor="start" y="28.125" textLength="248.52008056640625" style="font-family: Arial, Helvetica Neue, Helvetica, sans-serif;">- Calculamos el código ASCII encriptado</tspan><tspan xml:space="preserve" text-rendering="optimizeSpeed" font-size="13.88888888888889" font-weight="normal" font-style="normal" fill="#333333" opacity="1" x="71.228" text-anchor="start" y="43.75" textLength="124.26341247558594" style="font-family: Arial, Helvetica Neue, Helvetica, sans-serif;">((x -97)+33)%26+97</tspan><tspan xml:space="preserve" text-rendering="optimizeSpeed" font-size="13.88888888888889" font-weight="normal" font-style="normal" fill="#333333" opacity="1" x="0.601" text-anchor="start" y="59.375" textLength="265.5174560546875" style="font-family: Arial, Helvetica Neue, Helvetica, sans-serif;">- Obtenemos la letra del código encriptado.</tspan><tspan xml:space="preserve" text-rendering="optimizeSpeed" font-size="13.88888888888889" font-weight="normal" font-style="normal" fill="#333333" opacity="1" x="0.221" text-anchor="start" y="75" textLength="262.4189758300781" style="font-family: Arial, Helvetica Neue, Helvetica, sans-serif;">- Agregamos la letra encriptada en el array</tspan><tspan xml:space="preserve" text-rendering="optimizeSpeed" font-size="13.88888888888889" font-weight="normal" font-style="normal" fill="#333333" opacity="1" x="115.223" text-anchor="start" y="90.625" textLength="36.272857666015625" style="font-family: Arial, Helvetica Neue, Helvetica, sans-serif;">vacio.</tspan><tspan xml:space="preserve" text-rendering="optimizeSpeed" font-size="13.88888888888889" font-weight="normal" font-style="normal" fill="#333333" opacity="1" x="15.272" text-anchor="start" y="106.25" textLength="236.17373657226562" style="font-family: Arial, Helvetica Neue, Helvetica, sans-serif;">- Convertimos el array en una cadena.</tspan></text></g></g><g width="327.479" height="0" transform="scale(1,1) translate(797.052,1034.263)"><g fill="#545454" stroke="#545454" stroke-opacity="1" transform="scale(1,1) translate(0,0)"><path fill="none" stroke-width="1" stroke-dasharray="none" d="M50,0 L50,0 M0,0 L40,0 M327.479,0 L327.479,0 M50,0 L50,0"/><g><g stroke-dasharray="none"><path d="M40,-5L50,0L40,5z" stroke="none" fill-opacity="1"/></g></g></g></g><g width="200" height="100.859" transform="scale(1,1) translate(597.052,983.833)"><g transform="scale(1,1) translate(0,0)" stroke="#7F7F7F" fill="url(#cdbf292d-1e2e-44d2-8dde-9cd4c17646b8)" stroke-opacity="1" filter="url(#a7b59569-b4ee-4c27-b265-38807b9e234e)"><linearGradient id="cdbf292d-1e2e-44d2-8dde-9cd4c17646b8" x1="100" y1="0" x2="100" y2="100.85883605100548" gradientUnits="userSpaceOnUse"><stop offset="0%" style="stop-color:#C4D5E6;stop-opacity:1;"/><stop offset="100%" style="stop-color:#B6CDE4;stop-opacity:1;"/></linearGradient><path d="M100,0 L200,50.429 L100,100.859 L0,50.429 L100,0 z" stroke-width="1" stroke-dasharray="none"/></g><g width="99.5" height="49.92941802550274" transform="scale(1,1) translate(50.25,25.465)"><text width="99.5" height="31.249998092651367" transform="scale(1,1) translate(0,9.339709966425687)" xml:space="preserve"><tspan xml:space="preserve" text-rendering="optimizeSpeed" font-size="13.88888888888889" font-weight="normal" font-style="normal" fill="#333333" opacity="1" x="4.606" text-anchor="start" y="12.5" textLength="90.2889404296875" style="font-family: Arial, Helvetica Neue, Helvetica, sans-serif;">if(str.charCode</tspan><tspan xml:space="preserve" text-rendering="optimizeSpeed" font-size="13.88888888888889" font-weight="normal" font-style="normal" fill="#333333" opacity="1" x="23.118" text-anchor="start" y="28.125" textLength="53.26348876953125" style="font-family: Arial, Helvetica Neue, Helvetica, sans-serif;">At &lt;=90)</tspan></text></g></g><g width="244.15" height="166.62" transform="scale(1,1) translate(574.977,1135.692)"><g stroke="#7F7F7F" opacity="1" stroke-width="1" stroke-dasharray="none" width="244.15" height="166.62" transform="scale(1,1) translate(0,0)" fill="url(#f66cf5cb-6a1b-4c01-bd68-38799ef144ed)" stroke-opacity="1" filter="url(#a7b59569-b4ee-4c27-b265-38807b9e234e)"><linearGradient id="f66cf5cb-6a1b-4c01-bd68-38799ef144ed" x1="122.075" y1="0" x2="122.075" y2="166.62" gradientUnits="userSpaceOnUse"><stop offset="0%" style="stop-color:#C4D5E6;stop-opacity:1;"/><stop offset="100%" style="stop-color:#B6CDE4;stop-opacity:1;"/></linearGradient><rect width="244.15" height="166.62"/></g><g width="239.15031147687887" height="161.62043513805543" transform="scale(1,1) translate(2.5,2.5)"><text width="239.15031147687887" height="156.24999046325684" transform="scale(1,1) translate(0,2.6852223373992956)" xml:space="preserve"><tspan xml:space="preserve" text-rendering="optimizeSpeed" font-size="13.88888888888889" font-weight="normal" font-style="normal" fill="#333333" opacity="1" x="12.285" text-anchor="start" y="12.5" textLength="210.72169494628906" style="font-family: Arial, Helvetica Neue, Helvetica, sans-serif;">- Obtener el código ASCII de cada</tspan><tspan xml:space="preserve" text-rendering="optimizeSpeed" font-size="13.88888888888889" font-weight="normal" font-style="normal" fill="#333333" opacity="1" x="106.069" text-anchor="start" y="28.125" textLength="27.01141357421875" style="font-family: Arial, Helvetica Neue, Helvetica, sans-serif;">letra</tspan><tspan xml:space="preserve" text-rendering="optimizeSpeed" font-size="13.88888888888889" font-weight="normal" font-style="normal" fill="#333333" opacity="1" x="27.737" text-anchor="start" y="43.75" textLength="179.81857299804688" style="font-family: Arial, Helvetica Neue, Helvetica, sans-serif;">- Calculamos el código ASCII</tspan><tspan xml:space="preserve" text-rendering="optimizeSpeed" font-size="13.88888888888889" font-weight="normal" font-style="normal" fill="#333333" opacity="1" x="75.96" text-anchor="start" y="59.375" textLength="87.23118591308594" style="font-family: Arial, Helvetica Neue, Helvetica, sans-serif;">desencriptado</tspan><tspan xml:space="preserve" text-rendering="optimizeSpeed" font-size="13.88888888888889" font-weight="normal" font-style="normal" fill="#333333" opacity="1" x="35.063" text-anchor="start" y="75" textLength="169.0248260498047" style="font-family: Arial, Helvetica Neue, Helvetica, sans-serif;">((codAscii +65)-33)%26+65</tspan><tspan xml:space="preserve" text-rendering="optimizeSpeed" font-size="13.88888888888889" font-weight="normal" font-style="normal" fill="#333333" opacity="1" x="21.167" text-anchor="start" y="90.625" textLength="192.95816040039062" style="font-family: Arial, Helvetica Neue, Helvetica, sans-serif;">- Obtenemos la letra del código</tspan><tspan xml:space="preserve" text-rendering="optimizeSpeed" font-size="13.88888888888889" font-weight="normal" font-style="normal" fill="#333333" opacity="1" x="74.031" text-anchor="start" y="106.25" textLength="91.08897399902344" style="font-family: Arial, Helvetica Neue, Helvetica, sans-serif;">desencriptado.</tspan><tspan xml:space="preserve" text-rendering="optimizeSpeed" font-size="13.88888888888889" font-weight="normal" font-style="normal" fill="#333333" opacity="1" x="0.322" text-anchor="start" y="121.875" textLength="234.64822387695312" style="font-family: Arial, Helvetica Neue, Helvetica, sans-serif;">- Agregamos la letra desencriptada en</tspan><tspan xml:space="preserve" text-rendering="optimizeSpeed" font-size="13.88888888888889" font-weight="normal" font-style="normal" fill="#333333" opacity="1" x="76.36" text-anchor="start" y="137.5" textLength="86.43110656738281" style="font-family: Arial, Helvetica Neue, Helvetica, sans-serif;">el array vacio.</tspan><tspan xml:space="preserve" text-rendering="optimizeSpeed" font-size="13.88888888888889" font-weight="normal" font-style="normal" fill="#333333" opacity="1" x="1.488" text-anchor="start" y="153.125" textLength="236.17373657226562" style="font-family: Arial, Helvetica Neue, Helvetica, sans-serif;">- Convertimos el array en una cadena.</tspan></text></g></g><g width="276.479" height="138.24" transform="scale(1,1) translate(847.052,965.143)"><g stroke="#7F7F7F" opacity="1" stroke-width="1" stroke-dasharray="none" width="276.479" height="138.24" transform="scale(1,1) translate(0,0)" fill="url(#8be50d3b-63b2-44fe-95b5-3b7e7d683879)" stroke-opacity="1" filter="url(#a7b59569-b4ee-4c27-b265-38807b9e234e)"><linearGradient id="8be50d3b-63b2-44fe-95b5-3b7e7d683879" x1="138.2395" y1="0" x2="138.2395" y2="138.24" gradientUnits="userSpaceOnUse"><stop offset="0%" style="stop-color:#C4D5E6;stop-opacity:1;"/><stop offset="100%" style="stop-color:#B6CDE4;stop-opacity:1;"/></linearGradient><rect width="276.479" height="138.24"/></g><g width="271.47947592288256" height="133.23973796144128" transform="scale(1,1) translate(2.5,2.5)"><text width="271.47947592288256" height="124.99999237060547" transform="scale(1,1) translate(0,4.119872795417905)" xml:space="preserve"><tspan xml:space="preserve" text-rendering="optimizeSpeed" font-size="13.88888888888889" font-weight="normal" font-style="normal" fill="#333333" opacity="1" x="14.944" text-anchor="start" y="12.5" textLength="241.59091186523438" style="font-family: Arial, Helvetica Neue, Helvetica, sans-serif;">- Obtener el código ASCII de cada letra</tspan><tspan xml:space="preserve" text-rendering="optimizeSpeed" font-size="13.88888888888889" font-weight="normal" font-style="normal" fill="#333333" opacity="1" x="0.286" text-anchor="start" y="28.125" textLength="270.9075622558594" style="font-family: Arial, Helvetica Neue, Helvetica, sans-serif;">- Calculamos el código ASCII desencriptado</tspan><tspan xml:space="preserve" text-rendering="optimizeSpeed" font-size="13.88888888888889" font-weight="normal" font-style="normal" fill="#333333" opacity="1" x="49.485" text-anchor="start" y="43.75" textLength="172.50975036621094" style="font-family: Arial, Helvetica Neue, Helvetica, sans-serif;">((codAscii +97)+33)%26+97</tspan><tspan xml:space="preserve" text-rendering="optimizeSpeed" font-size="13.88888888888889" font-weight="normal" font-style="normal" fill="#333333" opacity="1" x="37.332" text-anchor="start" y="59.375" textLength="192.95816040039062" style="font-family: Arial, Helvetica Neue, Helvetica, sans-serif;">- Obtenemos la letra del código</tspan><tspan xml:space="preserve" text-rendering="optimizeSpeed" font-size="13.88888888888889" font-weight="normal" font-style="normal" fill="#333333" opacity="1" x="90.195" text-anchor="start" y="75" textLength="91.08897399902344" style="font-family: Arial, Helvetica Neue, Helvetica, sans-serif;">desencriptado.</tspan><tspan xml:space="preserve" text-rendering="optimizeSpeed" font-size="13.88888888888889" font-weight="normal" font-style="normal" fill="#333333" opacity="1" x="9.154" text-anchor="start" y="90.625" textLength="249.3133087158203" style="font-family: Arial, Helvetica Neue, Helvetica, sans-serif;">- Agregamos la letra desencriptada en el</tspan><tspan xml:space="preserve" text-rendering="optimizeSpeed" font-size="13.88888888888889" font-weight="normal" font-style="normal" fill="#333333" opacity="1" x="99.857" text-anchor="start" y="106.25" textLength="71.76602172851562" style="font-family: Arial, Helvetica Neue, Helvetica, sans-serif;">array vacio.</tspan><tspan xml:space="preserve" text-rendering="optimizeSpeed" font-size="13.88888888888889" font-weight="normal" font-style="normal" fill="#333333" opacity="1" x="17.653" text-anchor="start" y="121.875" textLength="236.17373657226562" style="font-family: Arial, Helvetica Neue, Helvetica, sans-serif;">- Convertimos el array en una cadena.</tspan></text></g></g></g></svg>